<?xml version="1.0" encoding="iso-8859-1"?>
<!-- Uploaded to: SVG Repo, www.svgrepo.com, Generator: SVG Repo Mixer Tools -->
<svg version="1.1" id="Layer_1" xmlns="http://www.w3.org/2000/svg" xmlns:xlink="http://www.w3.org/1999/xlink" 
	 viewBox="0 0 512 512" xml:space="preserve">
<polygon style="fill:#FFB92E;" points="236.827,137.736 235.462,108.906 230.69,8.232 173.348,8.232 161.67,254.614 
	242.369,254.614 "/>
<polygon style="fill:#EF9A1D;" points="173.348,8.232 161.67,254.614 183.101,254.614 194.778,8.232 "/>
<polygon style="fill:#FFB92E;" points="131.323,254.614 119.647,8.232 62.305,8.232 50.626,254.614 "/>
<polygon style="fill:#E35F46;" points="170.122,75.398 233.916,75.398 232.433,44.507 171.605,44.507 "/>
<polygon style="fill:#EF9A1D;" points="62.305,8.232 50.626,254.614 72.056,254.614 83.735,8.232 "/>
<polygon style="fill:#E35F46;" points="59.078,75.398 122.872,75.398 121.39,44.507 60.562,44.507 "/>
<g>
	<polygon style="fill:#D8422E;" points="171.605,44.507 170.122,75.398 191.553,75.398 193.037,44.507 	"/>
	<polygon style="fill:#D8422E;" points="60.562,44.507 59.078,75.398 80.509,75.398 81.992,44.507 	"/>
</g>
<g>
	<path style="fill:#F7984B;" d="M230.842,16.463h-57.559c-4.546,0-8.232-3.684-8.232-8.232S168.737,0,173.283,0h57.559
		c4.547,0,8.232,3.684,8.232,8.232S235.389,16.463,230.842,16.463z"/>
	<path style="fill:#F7984B;" d="M119.647,16.463H62.178c-4.547,0-8.232-3.684-8.232-8.232S57.632,0,62.178,0h57.468
		c4.547,0,8.232,3.684,8.232,8.232S124.193,16.463,119.647,16.463z"/>
</g>
<g>
	<path style="fill:#7C7A75;" d="M417.025,232.547c-4.547,0-8.232-3.684-8.232-8.232v-32.291c0-4.547,3.684-8.232,8.232-8.232
		c4.546,0,8.232,3.684,8.232,8.232v32.291C425.256,228.861,421.571,232.547,417.025,232.547z"/>
	<path style="fill:#7C7A75;" d="M308.435,232.547c-4.546,0-8.232-3.684-8.232-8.232v-32.291c0-4.547,3.686-8.232,8.232-8.232
		c4.547,0,8.232,3.684,8.232,8.232v32.291C316.666,228.861,312.982,232.547,308.435,232.547z"/>
</g>
<g>
	<path style="fill:#36A1CB;" d="M417.025,214.437c-22.189,0-40.175,17.99-40.175,40.176H457.2
		C457.199,232.426,439.214,214.437,417.025,214.437z"/>
	<path style="fill:#36A1CB;" d="M308.435,214.437c-22.189,0-40.175,17.99-40.175,40.176h80.352
		C348.611,232.426,330.624,214.437,308.435,214.437z"/>
</g>
<path style="fill:#4BAF78;" d="M488.564,483.384c0,7.274-5.897,13.17-13.17,13.17H30.493c-7.273,0-13.17-5.896-13.17-13.17V266.687
	c0-7.274,5.897-13.17,13.17-13.17h444.9c7.273,0,13.17,5.896,13.17,13.17v216.697H488.564z"/>
<g>
	<path style="fill:#DFDBCC;" d="M303.43,350.17h-55.974c-3.03,0-5.488,2.456-5.488,5.488v50.75c0,3.031,2.457,5.488,5.488,5.488
		h55.974c3.031,0,5.488-2.456,5.488-5.488v-50.75C308.918,352.626,306.461,350.17,303.43,350.17z"/>
	<path style="fill:#DFDBCC;" d="M208.453,350.17h-55.974c-3.03,0-5.488,2.456-5.488,5.488v50.75c0,3.031,2.457,5.488,5.488,5.488
		h55.974c3.031,0,5.488-2.456,5.488-5.488v-50.75C213.94,352.626,211.483,350.17,208.453,350.17z"/>
	<path style="fill:#DFDBCC;" d="M113.475,350.17H57.501c-3.03,0-5.488,2.456-5.488,5.488v50.75c0,3.031,2.457,5.488,5.488,5.488
		h55.974c3.031,0,5.488-2.456,5.488-5.488v-50.75C118.963,352.626,116.506,350.17,113.475,350.17z"/>
</g>
<g>
	<path style="fill:#6FDD9B;" d="M443.962,336.449h-90.363c-4.546,0-8.232-3.684-8.232-8.232c0-4.547,3.686-8.232,8.232-8.232h90.363
		c4.547,0,8.232,3.684,8.232,8.232C452.193,332.765,448.508,336.449,443.962,336.449z"/>
	<path style="fill:#6FDD9B;" d="M303.43,336.449h-55.974c-4.546,0-8.232-3.684-8.232-8.232c0-4.547,3.686-8.232,8.232-8.232h55.974
		c4.546,0,8.232,3.684,8.232,8.232C311.661,332.765,307.976,336.449,303.43,336.449z"/>
	<path style="fill:#6FDD9B;" d="M208.453,336.449h-55.974c-4.546,0-8.232-3.684-8.232-8.232c0-4.547,3.686-8.232,8.232-8.232h55.974
		c4.547,0,8.232,3.684,8.232,8.232C216.684,332.765,212.999,336.449,208.453,336.449z"/>
	<path style="fill:#6FDD9B;" d="M113.475,336.449H57.501c-4.546,0-8.232-3.684-8.232-8.232c0-4.547,3.686-8.232,8.232-8.232h55.974
		c4.547,0,8.232,3.684,8.232,8.232C121.707,332.765,118.021,336.449,113.475,336.449z"/>
</g>
<g>
	<path style="fill:#EF711D;" d="M186.49,8.232c0-4.547,3.686-8.232,8.232-8.232h-21.438c-4.546,0-8.232,3.684-8.232,8.232
		s3.686,8.232,8.232,8.232h21.438C190.175,16.463,186.49,12.779,186.49,8.232z"/>
	<path style="fill:#EF711D;" d="M75.385,8.232C75.385,3.684,79.07,0,83.617,0H62.178c-4.547,0-8.232,3.684-8.232,8.232
		s3.684,8.232,8.232,8.232h21.438C79.07,16.463,75.385,12.779,75.385,8.232z"/>
</g>
<g>
	<path style="fill:#2393B5;" d="M427.744,215.895c-3.413-0.943-7.007-1.458-10.72-1.458c-22.189,0-40.175,17.99-40.175,40.176
		h21.438C398.288,236.14,410.762,220.587,427.744,215.895z"/>
	<path style="fill:#2393B5;" d="M319.155,215.895c-3.414-0.943-7.006-1.458-10.721-1.458c-22.189,0-40.175,17.99-40.175,40.176
		h21.438C289.698,236.14,302.172,220.587,319.155,215.895z"/>
</g>
<path style="fill:#299956;" d="M38.761,483.384V266.687c0-7.274,5.897-13.17,13.17-13.17H30.493c-7.273,0-13.17,5.896-13.17,13.17
	v216.696c0,7.274,5.897,13.17,13.17,13.17h21.438C44.658,496.554,38.761,490.658,38.761,483.384z"/>
<g>
	<path style="fill:#D8CFB2;" d="M263.406,406.407v-50.75c0-3.031,2.457-5.488,5.488-5.488h-21.438c-3.03,0-5.488,2.456-5.488,5.488
		v50.75c0,3.031,2.457,5.488,5.488,5.488h21.438C265.864,411.895,263.406,409.439,263.406,406.407z"/>
	<path style="fill:#D8CFB2;" d="M168.429,406.407v-50.75c0-3.031,2.457-5.488,5.488-5.488h-21.438c-3.03,0-5.488,2.456-5.488,5.488
		v50.75c0,3.031,2.457,5.488,5.488,5.488h21.438C170.886,411.895,168.429,409.439,168.429,406.407z"/>
	<path style="fill:#D8CFB2;" d="M73.451,406.407v-50.75c0-3.031,2.457-5.488,5.488-5.488H57.501c-3.03,0-5.488,2.456-5.488,5.488
		v50.75c0,3.031,2.457,5.488,5.488,5.488h21.438C75.909,411.895,73.451,409.439,73.451,406.407z"/>
</g>
<g>
	<path style="fill:#61C98D;" d="M366.805,328.218c0-4.547,3.686-8.232,8.232-8.232h-21.438c-4.546,0-8.232,3.684-8.232,8.232
		c0,4.547,3.686,8.232,8.232,8.232h21.438C370.49,336.449,366.805,332.764,366.805,328.218z"/>
	<path style="fill:#61C98D;" d="M260.662,328.218c0-4.547,3.686-8.232,8.232-8.232h-21.438c-4.546,0-8.232,3.684-8.232,8.232
		c0,4.547,3.686,8.232,8.232,8.232h21.438C264.349,336.449,260.662,332.764,260.662,328.218z"/>
	<path style="fill:#61C98D;" d="M165.685,328.218c0-4.547,3.686-8.232,8.232-8.232h-21.438c-4.546,0-8.232,3.684-8.232,8.232
		c0,4.547,3.686,8.232,8.232,8.232h21.438C169.37,336.449,165.685,332.764,165.685,328.218z"/>
	<path style="fill:#61C98D;" d="M70.708,328.218c0-4.547,3.686-8.232,8.232-8.232H57.501c-4.546,0-8.232,3.684-8.232,8.232
		c0,4.547,3.686,8.232,8.232,8.232h21.438C74.393,336.449,70.708,332.764,70.708,328.218z"/>
</g>
<g>
	<g>
		<rect x="349.477" y="449.748" style="fill:#DFDBCC;" width="100.238" height="31.362"/>
	</g>
	<g>
		<rect x="349.477" y="387.024" style="fill:#DFDBCC;" width="100.238" height="31.363"/>
	</g>
</g>
<g>
	<g>
		<rect x="349.477" y="418.38" style="fill:#CCC3A8;" width="100.238" height="31.362"/>
	</g>
	<g>
		<rect x="349.477" y="355.656" style="fill:#CCC3A8;" width="100.238" height="31.363"/>
	</g>
</g>
<g>
	<rect x="349.477" y="449.748" style="fill:#D8CFB2;" width="21.704" height="31.362"/>
</g>
<g>
	<rect x="349.477" y="418.38" style="fill:#C9B585;" width="21.704" height="31.362"/>
</g>
<g>
	<rect x="349.477" y="387.024" style="fill:#D8CFB2;" width="21.704" height="31.363"/>
</g>
<g>
	<rect x="349.477" y="355.656" style="fill:#C9B585;" width="21.704" height="31.363"/>
</g>
<path style="fill:#CCC3A8;" d="M451.082,512h43.595c7.597,0,13.755-6.158,13.755-13.755v-3.38c0-7.597-6.158-13.755-13.755-13.755
	h-82.679H100.002H17.322c-7.597,0-13.755,6.158-13.755,13.755v3.38c0,7.597,6.158,13.755,13.755,13.755h82.679h321.874"/>
<path style="fill:#C9B585;" d="M26.794,498.245v-3.38c0-7.597,6.158-13.755,13.755-13.755H17.322
	c-7.597,0-13.755,6.158-13.755,13.755v3.38c0,7.597,6.158,13.755,13.755,13.755H40.55C32.952,512,26.794,505.842,26.794,498.245z"/>
</svg>