<?xml version="1.0" encoding="iso-8859-1"?>
<!-- Uploaded to: SVG Repo, www.svgrepo.com, Generator: SVG Repo Mixer Tools -->
<svg height="800px" width="800px" version="1.1" id="Layer_1" xmlns="http://www.w3.org/2000/svg" xmlns:xlink="http://www.w3.org/1999/xlink" 
	 viewBox="0 0 512.001 512.001" xml:space="preserve">
<path style="fill:#CCC3A8;" d="M475.665,471.366c-1.032-1.55-2.77-2.481-4.632-2.481H52.951c-1.862,0-3.601,0.932-4.634,2.481
	c-1.031,1.55-1.22,3.514-0.5,5.231l13.151,31.428c0.866,2.07,2.891,3.417,5.133,3.417h391.781c2.244,0,4.267-1.347,5.133-3.417
	l13.151-31.428C476.885,474.88,476.698,472.916,475.665,471.366z"/>
<path style="fill:#C9B585;" d="M84.308,508.026l-13.149-31.428c-0.72-1.717-0.533-3.682,0.5-5.231
	c1.033-1.55,2.771-2.481,4.632-2.481h-23.34c-1.862,0-3.601,0.932-4.634,2.481c-1.031,1.55-1.22,3.514-0.5,5.231l13.151,31.428
	c0.866,2.07,2.891,3.417,5.133,3.417h23.342C87.2,511.443,85.175,510.096,84.308,508.026z"/>
<g>
	<path style="fill:#36A1CB;" d="M402.584,154.808c-5.352,4.191-11.272,6.537-17.511,6.537c-6.241,0-12.163-2.346-17.513-6.537v76.1
		h35.024V154.808z"/>
	<path style="fill:#36A1CB;" d="M385.074,339.429c-4.61,0-8.348-3.736-8.348-8.348v-54.824c0-4.611,3.738-8.348,8.348-8.348
		c4.61,0,8.348,3.736,8.348,8.348v54.824C393.421,335.693,389.683,339.429,385.074,339.429z"/>
</g>
<path style="fill:#E35F46;" d="M429.033,400.135c0,7.376-5.98,13.356-13.356,13.356h-58.43c-7.378,0-13.356-5.98-13.356-13.356
	v-26.593c0-7.378,5.978-13.356,13.356-13.356h58.43c7.376,0,13.356,5.978,13.356,13.356V400.135z"/>
<path style="fill:#FFB92E;" d="M304.562,400.135c0,7.376-5.978,13.356-13.356,13.356h-58.43c-7.376,0-13.356-5.98-13.356-13.356
	v-26.593c0-7.378,5.98-13.356,13.356-13.356h58.43c7.378,0,13.356,5.978,13.356,13.356V400.135z"/>
<path style="fill:#4BAF78;" d="M180.093,400.135c0,7.376-5.98,13.356-13.356,13.356h-58.432c-7.376,0-13.356-5.98-13.356-13.356
	v-26.593c0-7.378,5.98-13.356,13.356-13.356h58.432c7.376,0,13.356,5.978,13.356,13.356L180.093,400.135L180.093,400.135z"/>
<path style="fill:#FFB92E;" d="M363.526,296.85c-7.378,0-13.356-5.98-13.356-13.356v-58.15c0-7.378,5.978-13.356,13.356-13.356
	h43.089c7.376,0,13.356,5.978,13.356,13.356v58.15c0,7.376-5.98,13.356-13.356,13.356H363.526z"/>
<path style="fill:#36A1CB;" d="M368.172,111.78H159.397c3.004,5.35,4.687,11.272,4.687,17.513c0,6.239-1.683,12.161-4.687,17.51
	h120.101h35.332h53.341c-3.006-5.35-4.689-11.272-4.689-17.51C363.483,123.051,365.166,117.129,368.172,111.78z"/>
<path style="fill:#2B80AF;" d="M201.289,111.78h-41.891c3.004,5.35,4.687,11.272,4.687,17.513c0,6.239-1.683,12.161-4.687,17.51
	h41.891c3.004-5.35,4.687-11.272,4.687-17.51C205.976,123.051,204.293,117.129,201.289,111.78z"/>
<path style="fill:#36A1CB;" d="M143.749,23.216h-20.976v79.274c5.35-3.271,11.272-5.109,17.51-5.109
	c6.242,0,12.163,1.837,17.513,5.109V37.304V23.216H143.749z"/>
<path style="fill:#DFDBCC;" d="M434.014,481.228h43.662c18.563,0,33.61-15.048,33.61-33.61v-0.515
	c0-18.563-15.048-33.61-33.61-33.61H34.326c-18.565,0-33.613,15.048-33.613,33.61v0.515c0,18.563,15.047,33.61,33.613,33.61h371.862
	"/>
<g>
	<path style="fill:#FFB92E;" d="M385.072,86.362c-23.709,0-42.93,19.222-42.93,42.93s19.222,42.928,42.93,42.928
		C408.781,172.22,428,153,428,129.292S408.781,86.362,385.072,86.362z M385.072,145.127c-8.747,0-15.837-7.089-15.837-15.835
		c0-8.747,7.089-15.837,15.837-15.837c8.745,0,15.835,7.089,15.835,15.837C400.907,138.038,393.818,145.127,385.072,145.127z"/>
	<path style="fill:#FFB92E;" d="M140.284,86.362c-23.709,0-42.928,19.222-42.928,42.93s19.22,42.928,42.928,42.928
		c23.711,0,42.93-19.22,42.93-42.928S163.995,86.362,140.284,86.362z M140.286,145.127c-8.747,0-15.837-7.089-15.837-15.835
		c0-8.747,7.089-15.837,15.837-15.837c8.745,0,15.835,7.089,15.835,15.837C156.121,138.038,149.031,145.127,140.286,145.127z"/>
</g>
<path style="fill:#CCC3A8;" d="M385.551,0.558h110.667c8.717,0,15.783,7.066,15.783,15.781c0,8.717-7.066,15.783-15.783,15.783
	H368.251h-23.372h-49.791h-78.175h-49.791h-23.374H15.783C7.066,32.121,0,25.056,0,16.339C0,7.624,7.066,0.558,15.783,0.558h127.966
	h23.372h49.791h78.175h60.921"/>
<path style="fill:#D8422E;" d="M367.232,400.135v-26.593c0-7.378,5.978-13.356,13.356-13.356h-23.342
	c-7.378,0-13.356,5.978-13.356,13.356v26.593c0,7.376,5.978,13.356,13.356,13.356h23.342
	C373.21,413.491,367.232,407.511,367.232,400.135z"/>
<path style="fill:#EF9A1D;" d="M242.759,400.135v-26.593c0-7.378,5.98-13.356,13.356-13.356h-23.342
	c-7.376,0-13.356,5.978-13.356,13.356v26.593c0,7.376,5.98,13.356,13.356,13.356h23.342
	C248.741,413.491,242.759,407.511,242.759,400.135z"/>
<path style="fill:#299956;" d="M118.288,400.135v-26.593c0-7.378,5.98-13.356,13.356-13.356h-23.34
	c-7.376,0-13.356,5.978-13.356,13.356v26.593c0,7.376,5.98,13.356,13.356,13.356h23.342
	C124.269,413.491,118.288,407.511,118.288,400.135z"/>
<path style="fill:#EF9A1D;" d="M373.511,283.494v-58.15c0-7.378,5.978-13.356,13.356-13.356h-23.342
	c-7.378,0-13.356,5.978-13.356,13.356v58.15c0,7.376,5.978,13.356,13.356,13.356h23.342
	C379.489,296.85,373.511,290.87,373.511,283.494z"/>
<path style="fill:#D8CFB2;" d="M24.054,447.617v-0.515c0-18.563,15.048-33.61,33.613-33.61h-23.34
	c-18.565,0-33.613,15.048-33.613,33.61v0.515c0,18.563,15.047,33.61,33.613,33.61h23.342
	C39.102,481.228,24.054,466.18,24.054,447.617z"/>
<g>
	<path style="fill:#EF9A1D;" d="M365.483,129.292c0-19.662,13.224-36.225,31.26-41.31c-3.712-1.047-7.623-1.619-11.67-1.619
		c-23.709,0-42.93,19.222-42.93,42.93s19.222,42.928,42.93,42.928c4.048,0,7.958-0.572,11.67-1.619
		C378.707,165.516,365.483,148.954,365.483,129.292z"/>
	<path style="fill:#EF9A1D;" d="M120.697,129.292c0-19.662,13.224-36.226,31.259-41.31c-3.713-1.047-7.624-1.619-11.671-1.619
		c-23.709,0-42.928,19.222-42.928,42.93s19.22,42.928,42.928,42.928c4.048,0,7.958-0.572,11.671-1.618
		C133.921,165.516,120.697,148.954,120.697,129.292z"/>
</g>
<path style="fill:#C9B585;" d="M23.342,16.339c0-8.715,7.066-15.781,15.783-15.781H15.783C7.066,0.558,0,7.624,0,16.339
	c0,8.717,7.066,15.783,15.783,15.783h23.34C30.406,32.121,23.342,25.056,23.342,16.339z"/>
<g>
	<path style="fill:#F28838;" d="M385.072,153.475c-13.334,0-24.185-10.848-24.185-24.183s10.85-24.185,24.185-24.185
		c13.334,0,24.183,10.849,24.183,24.185C409.254,142.628,398.407,153.475,385.072,153.475z M385.072,121.804
		c-4.129,0-7.49,3.36-7.49,7.49c0,4.128,3.36,7.487,7.49,7.487c4.128,0,7.487-3.359,7.487-7.487
		C392.559,125.163,389.201,121.804,385.072,121.804z"/>
	<path style="fill:#F28838;" d="M140.286,153.475c-13.334,0-24.185-10.848-24.185-24.183s10.85-24.185,24.185-24.185
		c13.335,0,24.183,10.849,24.183,24.185C164.469,142.628,153.622,153.475,140.286,153.475z M140.286,121.804
		c-4.13,0-7.49,3.36-7.49,7.49c0,4.128,3.359,7.487,7.49,7.487c4.128,0,7.487-3.359,7.487-7.487
		C147.774,125.163,144.415,121.804,140.286,121.804z"/>
</g>
<g>
	<path style="fill:#7C7A75;" d="M50.987,455.706H37.074c-4.61,0-8.348-3.736-8.348-8.348c0-4.611,3.738-8.348,8.348-8.348h13.913
		c4.611,0,8.348,3.736,8.348,8.348C59.335,451.97,55.597,455.706,50.987,455.706z"/>
	<path style="fill:#7C7A75;" d="M435.01,455.706h-27.43c-4.611,0-8.348-3.736-8.348-8.348c0-4.611,3.736-8.348,8.348-8.348h27.43
		c4.61,0,8.348,3.736,8.348,8.348C443.358,451.97,439.62,455.706,435.01,455.706z M380.149,455.706h-27.431
		c-4.61,0-8.348-3.736-8.348-8.348c0-4.611,3.738-8.348,8.348-8.348h27.431c4.61,0,8.348,3.736,8.348,8.348
		C388.497,451.97,384.76,455.706,380.149,455.706z M325.289,455.706h-27.43c-4.611,0-8.348-3.736-8.348-8.348
		c0-4.611,3.736-8.348,8.348-8.348h27.43c4.611,0,8.348,3.736,8.348,8.348C333.637,451.97,329.9,455.706,325.289,455.706z
		 M270.429,455.706h-27.431c-4.611,0-8.348-3.736-8.348-8.348c0-4.611,3.736-8.348,8.348-8.348h27.431
		c4.61,0,8.348,3.736,8.348,8.348C278.777,451.97,275.04,455.706,270.429,455.706z M215.569,455.706h-27.431
		c-4.611,0-8.348-3.736-8.348-8.348c0-4.611,3.736-8.348,8.348-8.348h27.431c4.61,0,8.348,3.736,8.348,8.348
		C223.917,451.97,220.178,455.706,215.569,455.706z M160.708,455.706h-27.431c-4.61,0-8.348-3.736-8.348-8.348
		c0-4.611,3.738-8.348,8.348-8.348h27.431c4.611,0,8.348,3.736,8.348,8.348C169.056,451.97,165.319,455.706,160.708,455.706z
		 M105.848,455.706H78.417c-4.61,0-8.348-3.736-8.348-8.348c0-4.611,3.738-8.348,8.348-8.348h27.431
		c4.611,0,8.348,3.736,8.348,8.348C114.196,451.97,110.458,455.706,105.848,455.706z"/>
	<path style="fill:#7C7A75;" d="M476.353,455.706H462.44c-4.61,0-8.348-3.736-8.348-8.348c0-4.611,3.738-8.348,8.348-8.348h13.913
		c4.611,0,8.348,3.736,8.348,8.348C484.701,451.97,480.963,455.706,476.353,455.706z"/>
</g>
<path style="fill:#F28838;" d="M419.972,283.494v-27.826H350.17v27.826c0,7.376,5.978,13.356,13.356,13.356h43.089
	C413.991,296.85,419.972,290.87,419.972,283.494z"/>
<path style="fill:#EF711D;" d="M373.511,283.494v-27.826H350.17v27.826c0,7.376,5.978,13.356,13.356,13.356h23.342
	C379.489,296.85,373.511,290.87,373.511,283.494z"/>
</svg>